# xmcd CD database file
#
# Track frame offsets:
#	300
#	16518
#	33450
#	46961
#	62542
#	83510
#	98437
#	115839
#	130658
#	148392
#	162569
#	175766
#	197232
#	216026
#
# Disc length: 3071 seconds
#
# Revision: 0
# Processed by: cddbd v1.5.1PL0 Copyright (c) Steve Scherf et al.
# Submitted via: CDex 1.51
#
DISCID=b50bfb0e
DTITLE=Rude Dog - Baptism In Blue
DYEAR=2004
DGENRE=Blues
TTITLE0=Born In Chicago
TTITLE1=River Runs Deep
TTITLE2=Cadillac Walk
TTITLE3=Help Me
TTITLE4=Kansas City Blues
TTITLE5=You Shook Me
TTITLE6=You Got To Move
TTITLE7=No Expectations
TTITLE8=Prodigal Son
TTITLE9=Shake Your Hips
TTITLE10=Shake Your Money Maker
TTITLE11=Back Door Man
TTITLE12=Who's Been Talkin'
TTITLE13=Cocaine Blues
EXTD=YEAR: 2004
EXTT0=
EXTT1=
EXTT2=
EXTT3=
EXTT4=
EXTT5=
EXTT6=
EXTT7=
EXTT8=
EXTT9=
EXTT10=
EXTT11=
EXTT12=
EXTT13=
PLAYORDER=
